<svg version="1.1" id="Layer_1" xmlns="http://www.w3.org/2000/svg" xmlns:xlink="http://www.w3.org/1999/xlink" x="0px" y="0px"
	 width="100%" viewBox="0 0 880 1205" enable-background="new 0 0 880 1205" xml:space="preserve">
<path fill="#E7F6FC" opacity="1.000000" stroke="none" 
	d="
M879.000000,1206.000000 
	C586.373596,1206.000000 293.747192,1206.000000 1.060392,1206.000000 
	C1.060392,804.428833 1.060392,402.857697 1.060392,1.000000 
	C293.364197,1.000000 585.728455,1.000000 878.545654,1.450904 
	C878.998962,403.267883 878.999512,804.633911 879.000000,1206.000000 
M363.500000,5.000848 
	C246.347885,5.000849 129.195786,5.000701 12.043670,5.001217 
	C5.004156,5.001248 5.001270,5.003715 5.001262,11.956409 
	C5.000809,406.408844 5.000755,800.861267 5.001490,1195.313721 
	C5.001503,1202.004517 5.005952,1202.009033 11.808480,1202.009033 
	C297.274048,1202.009888 582.739624,1202.009888 868.205200,1202.009155 
	C874.993164,1202.009033 874.996948,1202.004150 874.997009,1195.297852 
	C874.997559,800.845398 874.997620,406.392975 874.997192,11.940538 
	C874.997192,5.003704 874.994629,5.001233 867.939270,5.001213 
	C700.126160,5.000747 532.313110,5.000850 363.500000,5.000848 
z"/>
<path fill="#FFFFFF" opacity="1.000000" stroke="none" 
	d="
M879.500000,1206.000000 
	C878.999512,804.633911 878.998962,403.267883 878.999268,1.450913 
	C879.666687,1.333351 880.783630,1.548031 880.909058,2.023971 
	C881.196533,3.114891 881.000000,4.333333 881.000000,5.500000 
	C881.000000,404.166656 881.001099,802.833313 880.958801,1201.500000 
	C880.958618,1203.000000 880.333313,1204.500000 879.500000,1206.000000 
z"/>
<path fill="#FFFFFF" opacity="1.000000" stroke="none" 
	d="
M364.000000,5.000849 
	C532.313110,5.000850 700.126160,5.000747 867.939270,5.001213 
	C874.994629,5.001233 874.997192,5.003704 874.997192,11.940538 
	C874.997620,406.392975 874.997559,800.845398 874.997009,1195.297852 
	C874.996948,1202.004150 874.993164,1202.009033 868.205200,1202.009155 
	C582.739624,1202.009888 297.274048,1202.009888 11.808480,1202.009033 
	C5.005952,1202.009033 5.001503,1202.004517 5.001490,1195.313721 
	C5.000755,800.861267 5.000809,406.408844 5.001262,11.956409 
	C5.001270,5.003715 5.004156,5.001248 12.043670,5.001217 
	C129.195786,5.000701 246.347885,5.000849 364.000000,5.000849 
M367.445648,424.221985 
	C367.206390,424.740936 366.967133,425.259888 366.077820,425.962769 
	C356.367279,441.975281 346.656769,457.987793 336.364197,474.323792 
	C335.611420,475.915253 334.858643,477.506714 333.977570,479.726105 
	C333.965363,480.151520 333.953156,480.576935 333.998474,480.977264 
	C333.998474,480.977264 333.969513,480.921478 333.343872,481.225189 
	C331.340942,485.380402 328.987427,489.407288 327.409882,493.718140 
	C324.364807,502.039215 321.757812,510.520569 318.470428,519.499268 
	C314.810364,533.108154 313.237305,546.978882 313.136292,561.968689 
	C313.008209,580.669434 314.868042,599.148499 319.744720,617.557800 
	C320.752106,615.354553 321.759460,613.151245 323.376251,610.733826 
	C323.581268,610.150269 323.786255,609.566711 324.604706,608.721924 
	C326.449524,606.169373 328.294342,603.616882 330.686676,600.731323 
	C331.454803,599.497437 332.222900,598.263550 333.549591,596.824280 
	C334.078308,596.237915 334.607056,595.651611 335.660004,594.767822 
	C336.440430,593.861389 337.220886,592.954895 338.559601,591.683960 
	C352.589844,577.429260 369.167877,566.919983 387.343079,558.863586 
	C390.301056,557.552429 391.165649,555.957642 391.059723,552.896484 
	C390.830475,546.271667 390.975952,539.633850 391.249786,532.304810 
	C391.418182,531.498474 391.664093,530.699585 391.743011,529.884583 
	C392.535645,521.697754 392.973938,513.460327 394.167389,505.333344 
	C395.317383,497.502197 397.239441,489.784393 399.174408,481.330048 
	C399.430420,480.552216 399.747864,479.788727 399.932770,478.994354 
	C401.468475,472.397430 402.748444,465.730103 404.571747,459.214447 
	C406.017334,454.048553 408.119690,449.066437 410.279480,443.362915 
	C417.384460,423.464935 424.668793,403.628357 431.511414,383.640594 
	C434.500153,374.910370 436.584625,365.870636 439.414673,356.313202 
	C447.028076,331.412933 444.216644,307.076172 435.653137,281.579437 
	C435.244415,283.462952 435.076660,283.890076 435.074921,284.317871 
	C435.071503,285.146820 435.129211,285.979614 435.217529,286.804840 
	C437.450989,307.673218 435.035461,327.835114 426.046997,346.989105 
	C424.364227,350.575012 422.578369,354.112549 420.308105,358.104156 
	C410.728058,369.493317 401.016449,380.775116 391.611023,392.306702 
	C384.510345,401.012543 377.801300,410.037842 370.374359,419.249817 
	C369.917053,420.159790 369.459778,421.069763 368.493896,422.302399 
	C368.322876,422.863373 368.151855,423.424347 367.445648,424.221985 
M419.990265,651.770081 
	C420.226929,652.156799 420.463593,652.543579 420.995300,653.632812 
	C426.290497,665.108093 431.585693,676.583435 437.082214,688.736694 
	C444.999908,701.515808 452.917603,714.294861 461.036835,727.734009 
	C472.208191,745.042175 487.079315,758.959167 502.111450,773.252991 
	C507.880585,758.462769 513.432617,744.229187 519.493713,729.525391 
	C525.734619,716.373840 531.975525,703.222290 538.750305,689.669250 
	C546.556641,676.866821 554.362915,664.064331 562.729553,650.876221 
	C566.853088,645.532654 570.976562,640.189148 575.475525,634.359070 
	C568.675720,627.723572 562.095520,621.222717 555.381287,614.863281 
	C554.643188,614.164185 553.136841,614.276245 551.820251,613.377014 
	C552.024048,610.639709 550.845886,611.052856 549.007324,611.983704 
	C549.007324,611.983704 548.729309,611.673218 548.861389,610.979553 
	C547.551575,609.239929 546.598083,606.932373 544.875061,605.851562 
	C532.283508,597.953186 519.537415,590.300964 506.649200,582.299744 
	C506.477631,582.147156 506.279175,582.048706 505.352081,581.833923 
	C495.824890,578.393677 486.458710,574.386353 476.738403,571.626038 
	C453.321503,564.976135 429.644592,563.841187 405.824127,569.883972 
	C403.040375,570.590088 401.692200,571.657593 402.149933,574.575745 
	C403.845764,585.387390 405.521027,596.202271 407.193970,607.796997 
	C407.455109,608.927551 407.644897,610.080261 407.988251,611.185303 
	C411.955933,623.954102 415.946838,636.715576 419.955414,649.454834 
	C419.955414,649.454834 419.969086,649.476807 419.917480,650.387939 
	C419.924774,650.692017 419.932037,650.996155 419.990265,651.770081 
M552.872925,695.589844 
	C548.112793,704.465881 543.352661,713.341919 538.130554,722.787598 
	C532.453003,735.860596 526.775452,748.933594 520.697632,762.610229 
	C517.770508,771.023743 514.843384,779.437317 511.429169,788.395996 
	C508.023346,799.689819 503.948029,810.832031 501.349457,822.308594 
	C495.739746,847.083923 490.888031,872.030823 485.331268,897.547241 
	C483.191956,913.683899 481.110565,929.828735 478.828857,945.945251 
	C478.585449,947.664368 477.488098,950.317871 476.251068,950.673462 
	C466.714020,953.414673 457.044739,955.695984 446.751556,958.287231 
	C446.751556,956.027527 446.752167,954.241577 446.751495,952.455688 
	C446.745514,936.970459 446.780487,921.485107 446.718628,906.000122 
	C446.677429,895.688110 446.498016,885.376709 446.669525,874.156189 
	C446.594818,855.777527 446.520111,837.398926 446.698730,818.116760 
	C446.698730,812.856750 446.698730,807.596680 446.698730,802.312744 
	C462.211060,806.388672 477.050110,810.287659 492.211670,814.271423 
	C494.264496,807.755615 495.884460,801.857666 498.011902,796.148865 
	C499.259705,792.800476 498.480896,790.788391 495.925293,788.439636 
	C474.444397,768.697876 454.248230,747.826050 439.125946,721.821228 
	C429.532623,703.163757 419.939301,684.506348 410.194611,665.098145 
	C405.780273,651.733643 401.365967,638.369080 396.985199,624.185242 
	C394.258301,609.283142 391.531403,594.380981 388.643768,578.600586 
	C381.865753,582.387329 374.932312,585.843201 368.432251,589.980042 
	C355.193237,598.405640 343.017090,608.059875 334.509491,622.445068 
	C333.489349,624.144958 332.334625,625.779358 331.470398,627.555054 
	C324.889191,641.078552 321.068817,654.985168 325.899475,670.841370 
	C329.756287,690.736755 337.829559,708.765259 350.114471,725.682434 
	C351.510376,727.736389 352.820496,729.855225 354.315186,731.834534 
	C374.070679,757.995972 398.369568,778.704102 427.801910,793.346008 
	C429.373810,794.127991 430.720490,796.702698 430.943176,798.588074 
	C431.466553,803.018616 431.245178,807.537048 431.170990,812.943359 
	C431.231720,830.641357 431.292480,848.339294 431.197540,866.956787 
	C431.168976,897.592896 431.077881,928.229309 431.196075,958.864868 
	C431.209869,962.436340 430.049988,963.795227 426.739258,965.162109 
	C405.563080,973.904846 384.324036,982.549622 363.529877,992.145874 
	C347.510742,999.538452 347.784149,1000.136230 344.222931,1017.347107 
	C343.886230,1018.974487 343.411285,1020.607239 343.349365,1022.250610 
	C343.215515,1025.803589 343.308167,1029.365234 343.308167,1033.414673 
	C348.503052,1032.402832 353.169678,1031.493896 357.471924,1030.656006 
	C358.739227,1024.407959 359.970642,1018.728577 361.019714,1013.015747 
	C361.634094,1009.670044 363.200897,1007.435120 366.418549,1005.934998 
	C378.013397,1000.529358 389.365234,994.586853 401.062531,989.421631 
	C410.711121,985.161072 420.718750,981.713562 431.337341,977.607910 
	C431.337341,994.418518 431.337341,1010.219360 431.181580,1026.943115 
	C431.181580,1051.130249 431.181580,1075.317261 431.181580,1099.467285 
	C436.736633,1099.467285 441.477661,1099.467285 446.333008,1099.467285 
	C446.333008,1071.407593 446.333008,1043.684326 446.621826,1015.196716 
	C446.666565,1002.701599 446.885712,990.203247 446.653534,977.713257 
	C446.580444,973.783997 447.885651,972.118591 451.598511,971.234253 
	C464.046051,968.269348 476.407349,964.942505 488.855530,961.980591 
	C491.707581,961.302002 492.964630,960.365540 493.165619,957.175293 
	C493.614990,950.041931 494.500366,942.923950 495.491425,935.839294 
	C498.002533,917.888306 500.669647,899.959167 503.705597,881.290405 
	C507.503448,863.712341 511.301300,846.134338 515.195251,828.111389 
	C517.916870,829.215576 519.474487,829.761414 520.958740,830.462463 
	C548.098511,843.282654 573.833252,858.462280 598.032532,876.243652 
	C602.237671,879.333618 606.713440,882.055298 610.872986,885.392456 
	C611.122742,885.457458 611.372559,885.522400 611.622314,885.587402 
	C611.404480,885.398743 611.186707,885.210144 610.753906,884.388000 
	C585.183044,857.343628 557.645325,832.470154 528.243347,809.656433 
	C521.639038,804.532104 521.328735,802.524048 525.566101,796.123230 
	C547.855957,811.799072 570.260925,827.357422 592.448853,843.219482 
	C612.114807,857.278381 630.786743,872.494995 645.580139,891.905945 
	C646.825562,893.540039 648.081482,895.166199 649.705994,897.282654 
	C650.159973,895.119568 650.654175,893.822021 650.673218,892.517517 
	C651.017761,868.897705 651.682129,845.272827 651.420227,821.658569 
	C651.314148,812.101074 649.159607,802.566162 648.013062,792.186768 
	C646.690247,785.456726 645.367493,778.726624 644.067688,771.169006 
	C639.686157,756.447205 635.304688,741.725342 630.901001,726.259766 
	C625.232544,714.175659 619.564087,702.091492 613.918213,689.291626 
	C606.539551,675.181885 597.791565,661.995361 587.601868,649.272339 
	C574.247375,663.622742 562.710632,678.521667 552.872925,695.589844 
M282.792389,248.081802 
	C283.417053,248.309189 284.024384,248.626480 284.668915,248.750931 
	C304.349945,252.550583 324.016113,256.432343 343.732849,260.037628 
	C348.175323,260.849976 350.290955,262.583771 351.201172,267.315521 
	C353.046936,276.910675 358.271881,284.831421 365.954132,290.921478 
	C378.282928,300.695038 392.205872,302.860168 407.324768,299.371613 
	C417.863586,296.939911 427.235992,292.744110 433.156097,283.136475 
	C433.975800,281.806183 434.591400,279.437775 433.963898,278.266724 
	C426.212189,263.800903 415.279480,252.575424 399.545013,245.464996 
	C385.958466,238.888351 371.408386,236.026642 355.776825,234.593185 
	C357.140442,232.076935 358.245026,230.107895 359.284973,228.105286 
	C361.479492,223.879318 364.379150,222.040421 369.419678,223.735764 
	C373.300415,225.041000 377.586090,225.082306 381.608673,226.035736 
	C404.902649,231.556900 426.062012,240.774292 441.180115,260.508484 
	C444.447876,264.773956 448.182739,268.681610 451.702454,272.754089 
	C452.129608,272.647552 452.556763,272.540985 452.983917,272.434448 
	C452.983917,265.708771 452.936157,258.982727 452.994110,252.257538 
	C453.106171,239.254166 448.220215,228.216156 439.367950,219.002350 
	C421.647400,200.558029 393.195404,197.713242 370.717957,211.833939 
	C364.293549,215.869873 358.246674,220.719925 350.090210,220.964828 
	C345.620972,221.099014 341.163086,221.607010 336.699768,221.942093 
	C314.383209,223.617615 292.071625,225.362778 269.748291,226.942627 
	C253.369141,228.101791 236.969803,228.974792 220.589478,230.118729 
	C214.715256,230.528976 208.870346,231.359070 203.012070,231.997543 
	C218.632568,235.744568 234.205795,238.888092 249.801437,241.916061 
	C260.523560,243.997803 271.276794,245.919189 282.792389,248.081802 
z"/>
<path fill="#A3837E" opacity="1.000000" stroke="none" 
	d="
M647.937256,793.020996 
	C649.159607,802.566162 651.314148,812.101074 651.420227,821.658569 
	C651.682129,845.272827 651.017761,868.897705 650.673218,892.517517 
	C650.654175,893.822021 650.159973,895.119568 649.705994,897.282654 
	C648.081482,895.166199 646.825562,893.540039 645.580139,891.905945 
	C630.786743,872.494995 612.114807,857.278381 592.448853,843.219482 
	C570.260925,827.357422 547.855957,811.799072 525.566101,796.123230 
	C521.328735,802.524048 521.639038,804.532104 528.243347,809.656433 
	C557.645325,832.470154 585.183044,857.343628 610.885193,884.686157 
	C611.016479,884.984253 611.064209,884.947144 611.064209,884.947144 
	C606.713440,882.055298 602.237671,879.333618 598.032532,876.243652 
	C573.833252,858.462280 548.098511,843.282654 520.958740,830.462463 
	C519.474487,829.761414 517.916870,829.215576 515.195251,828.111389 
	C511.301300,846.134338 507.503448,863.712341 503.130676,881.652466 
	C497.265228,881.790894 498.113800,885.709900 498.014404,888.869263 
	C497.773438,896.529602 495.638428,898.334045 488.184814,897.054199 
	C487.380615,896.916016 486.546448,896.952271 485.726196,896.907532 
	C490.888031,872.030823 495.739746,847.083923 501.349457,822.308594 
	C503.948029,810.832031 508.023346,799.689819 511.871338,788.414917 
	C515.399719,790.843872 518.079590,793.305481 522.743469,793.156616 
	C536.355469,792.721985 549.990295,793.019714 563.616089,792.991150 
	C569.534302,792.978699 575.868896,794.342773 579.211060,788.244690 
	C582.671448,790.086121 585.377197,792.745667 588.106812,792.770386 
	C600.877563,792.886108 613.701172,792.784424 626.403320,791.631226 
	C630.496399,791.259705 632.542114,792.524597 634.781372,794.888855 
	C636.148071,796.331909 637.243530,798.031799 638.460815,799.616394 
	C638.460815,797.610596 638.460815,795.604797 638.460815,793.020996 
	C641.698914,793.020996 644.818054,793.020996 647.937256,793.020996 
z"/>
<path fill="#AC8B87" opacity="1.000000" stroke="none" 
	d="
M439.333679,722.442505 
	C454.248230,747.826050 474.444397,768.697876 495.925293,788.439636 
	C498.480896,790.788391 499.259705,792.800476 498.011902,796.148865 
	C495.884460,801.857666 494.264496,807.755615 492.211670,814.271423 
	C477.050110,810.287659 462.211060,806.388672 446.698730,802.312744 
	C446.698730,807.596680 446.698730,812.856750 446.202698,818.564270 
	C443.567993,817.971802 441.429382,816.931580 439.290588,815.891785 
	C436.635529,814.601013 433.980286,813.310547 431.325134,812.019958 
	C431.245178,807.537048 431.466553,803.018616 430.943176,798.588074 
	C430.720490,796.702698 429.373810,794.127991 427.801910,793.346008 
	C398.369568,778.704102 374.070679,757.995972 354.315186,731.834534 
	C352.820496,729.855225 351.510376,727.736389 350.394226,725.304138 
	C353.708557,724.553284 356.733978,724.015625 359.779816,723.847961 
	C364.041351,723.613342 369.499481,725.280640 372.330994,723.223511 
	C377.491302,719.474426 379.501801,722.720154 382.736969,725.120239 
	C384.568481,726.479126 387.021454,727.000305 389.194489,727.898804 
	C389.804413,726.047668 390.436462,724.203430 391.011902,722.341614 
	C391.205750,721.714478 391.083923,720.937317 391.406219,720.413086 
	C392.127258,719.240173 392.878021,717.513794 393.914429,717.267883 
	C394.942688,717.023926 396.462830,718.151428 397.542633,718.972778 
	C399.777069,720.672424 401.812164,722.632202 404.023254,724.365051 
	C406.229340,726.094177 408.473328,726.613708 410.508331,724.000122 
	C412.331360,721.658752 414.091766,722.029724 416.486115,723.544495 
	C418.446198,724.784607 421.052917,725.594727 423.357574,725.560425 
	C426.883423,725.508057 430.409882,724.637817 433.908539,723.970337 
	C435.747162,723.619446 437.527191,722.961670 439.333679,722.442505 
z"/>
<path fill="#BE9B98" opacity="1.000000" stroke="none" 
	d="
M419.931580,649.479065 
	C415.946838,636.715576 411.955933,623.954102 407.988251,611.185303 
	C407.644897,610.080261 407.455109,608.927551 407.615509,607.401550 
	C415.645386,605.196533 423.192535,605.728821 430.432159,608.413879 
	C433.525726,609.561157 435.333527,609.314392 438.385101,607.660950 
	C441.560883,605.940308 446.202789,606.594788 450.144836,606.921082 
	C450.862885,606.980530 451.298462,610.452881 451.572205,612.348267 
	C453.243469,616.658142 455.207031,620.969482 457.733307,626.516418 
	C460.839508,621.475464 462.988037,618.156189 464.905060,614.708252 
	C465.215546,614.149780 464.498016,613.019714 463.955811,611.920349 
	C462.146545,607.542358 464.454254,606.087769 467.986664,606.072449 
	C470.929382,606.059692 473.892151,607.026917 476.815826,606.894165 
	C488.446075,606.366211 500.026062,604.472778 511.726624,605.858521 
	C512.698608,605.973633 514.051575,605.338745 514.777466,604.606262 
	C517.046875,602.316345 518.736267,603.152954 520.646484,605.091492 
	C523.140320,607.622437 525.649658,608.817749 529.415283,606.592346 
	C533.101868,604.413696 538.342285,606.075684 540.093994,609.297729 
	C540.795715,610.072632 541.404663,610.553406 542.017212,611.009583 
	C542.020813,610.984985 541.972229,610.974915 541.903259,611.298340 
	C542.225037,612.093567 542.615784,612.565369 543.010742,613.012939 
	C543.015015,612.988708 542.966064,612.982788 543.008789,613.270081 
	C543.373779,613.715820 543.696045,613.874268 544.020325,614.007690 
	C544.022278,613.982727 543.972900,613.974304 543.890869,614.298340 
	C544.208191,615.093872 544.607605,615.565369 545.010864,616.012695 
	C545.014832,615.988525 544.966125,615.983032 545.004883,616.273804 
	C545.368652,616.720520 545.693665,616.876465 546.019531,617.007751 
	C546.020508,616.983032 545.971252,616.977478 545.889282,617.332642 
	C546.458130,618.791687 547.108948,619.895508 548.315857,621.942505 
	C549.152649,619.520508 549.591553,618.250183 550.006409,616.983887 
	C549.982361,616.987915 549.990540,617.036011 550.318970,616.936951 
	C550.773315,616.215942 550.899292,615.593994 551.000366,614.976807 
	C550.975464,614.981628 550.979187,615.032104 551.278320,615.030518 
	C551.729492,614.679810 551.881653,614.330750 552.015015,613.979004 
	C551.996155,613.976379 551.986816,614.012024 551.986816,614.012024 
	C553.136841,614.276245 554.643188,614.164185 555.381287,614.863281 
	C562.095520,621.222717 568.675720,627.723572 575.475525,634.359070 
	C570.976562,640.189148 566.853088,645.532654 562.265320,650.728760 
	C559.412476,647.878174 556.657288,647.711731 553.266846,648.666687 
	C550.710938,649.386597 547.858948,649.264221 545.148071,649.187378 
	C535.932007,648.926453 526.713867,648.134460 517.965027,652.294739 
	C512.822205,654.740295 506.777740,652.972656 505.335449,648.749817 
	C508.106720,644.689941 510.575989,640.762085 513.045288,636.834229 
	C512.550110,636.528442 512.054932,636.222717 511.559784,635.916931 
	C509.556610,638.982849 507.553406,642.048767 505.326874,645.456543 
	C502.783905,641.987305 500.596436,639.002991 498.408966,636.018677 
	C498.043213,636.287903 497.677490,636.557068 497.311768,636.826233 
	C499.171570,639.889221 501.031403,642.952209 502.514038,646.019775 
	C496.930267,648.142639 491.751495,650.524780 486.113708,647.252808 
	C485.752808,647.043274 485.144470,647.218689 484.657867,647.273682 
	C479.634583,647.842651 474.603790,648.357727 469.595306,649.037109 
	C467.840881,649.275024 465.458527,649.371704 464.550446,650.493896 
	C462.109985,653.509583 459.011353,653.258972 455.987122,652.912354 
	C452.560089,652.519531 449.284393,651.400024 446.379181,654.530212 
	C445.844696,655.106140 443.533813,654.894348 442.749237,654.221924 
	C439.977325,651.846436 437.010101,652.452698 434.054504,652.667664 
	C434.820526,650.878540 435.488251,649.419434 436.155945,647.960388 
	C435.822296,647.803345 435.488647,647.646301 435.154999,647.489258 
	C433.088593,650.569824 431.022156,653.650330 428.734802,657.060181 
	C426.388031,653.538757 424.330109,650.450806 422.186737,647.234619 
	C421.225433,648.191345 420.578491,648.835205 419.931580,649.479065 
z"/>
<path fill="#987874" opacity="1.000000" stroke="none" 
	d="
M485.528748,897.227417 
	C486.546448,896.952271 487.380615,896.916016 488.184814,897.054199 
	C495.638428,898.334045 497.773438,896.529602 498.014404,888.869263 
	C498.113800,885.709900 497.265228,881.790894 502.915009,882.017822 
	C500.669647,899.959167 498.002533,917.888306 495.491425,935.839294 
	C494.500366,942.923950 493.614990,950.041931 493.165619,957.175293 
	C492.964630,960.365540 491.707581,961.302002 488.855530,961.980591 
	C476.407349,964.942505 464.046051,968.269348 451.598511,971.234253 
	C447.885651,972.118591 446.580444,973.783997 446.653534,977.713257 
	C446.885712,990.203247 446.666565,1002.701599 446.035583,1015.588379 
	C443.500458,1016.269409 441.398163,1017.170105 439.633087,1016.727173 
	C435.298279,1015.639221 435.209106,1017.889832 434.811584,1021.136047 
	C434.598083,1022.879700 432.554932,1024.399414 431.337341,1026.020142 
	C431.337341,1010.219360 431.337341,994.418518 431.337341,977.607910 
	C420.718750,981.713562 410.711121,985.161072 401.062531,989.421631 
	C389.365234,994.586853 378.013397,1000.529358 366.418549,1005.934998 
	C363.200897,1007.435120 361.634094,1009.670044 361.019714,1013.015747 
	C359.970642,1018.728577 358.739227,1024.407959 357.471924,1030.656006 
	C353.169678,1031.493896 348.503052,1032.402832 343.308167,1033.414673 
	C343.308167,1029.365234 343.215515,1025.803589 343.349365,1022.250610 
	C343.411285,1020.607239 343.886230,1018.974487 344.222931,1017.347107 
	C347.784149,1000.136230 347.510742,999.538452 363.529877,992.145874 
	C384.324036,982.549622 405.563080,973.904846 426.739258,965.162109 
	C430.049988,963.795227 431.209869,962.436340 431.196075,958.864868 
	C431.077881,928.229309 431.168976,897.592896 431.659607,866.490173 
	C433.929749,867.075745 437.233429,868.043091 437.298706,869.194153 
	C437.670746,875.754272 442.027008,875.217957 446.380432,875.065002 
	C446.498016,885.376709 446.677429,895.688110 446.718628,906.000122 
	C446.780487,921.485107 446.745514,936.970459 446.751495,952.455688 
	C446.752167,954.241577 446.751556,956.027527 446.751556,958.287231 
	C457.044739,955.695984 466.714020,953.414673 476.251068,950.673462 
	C477.488098,950.317871 478.585449,947.664368 478.828857,945.945251 
	C481.110565,929.828735 483.191956,913.683899 485.528748,897.227417 
z"/>
<path fill="#F2CEC8" opacity="1.000000" stroke="none" 
	d="
M282.016144,247.912262 
	C271.276794,245.919189 260.523560,243.997803 249.801437,241.916061 
	C234.205795,238.888092 218.632568,235.744568 203.012070,231.997543 
	C208.870346,231.359070 214.715256,230.528976 220.589478,230.118729 
	C236.969803,228.974792 253.369141,228.101791 269.748291,226.942627 
	C292.071625,225.362778 314.383209,223.617615 336.699768,221.942093 
	C341.163086,221.607010 345.620972,221.099014 350.090210,220.964828 
	C358.246674,220.719925 364.293549,215.869873 370.717957,211.833939 
	C393.195404,197.713242 421.647400,200.558029 439.367950,219.002350 
	C448.220215,228.216156 453.106171,239.254166 452.994110,252.257538 
	C452.936157,258.982727 452.983917,265.708771 452.983917,272.434448 
	C452.556763,272.540985 452.129608,272.647552 451.702454,272.754089 
	C448.182739,268.681610 444.447876,264.773956 441.180115,260.508484 
	C426.062012,240.774292 404.902649,231.556900 381.608673,226.035736 
	C377.586090,225.082306 373.300415,225.041000 369.419678,223.735764 
	C364.379150,222.040421 361.479492,223.879318 359.284973,228.105286 
	C358.245026,230.107895 357.140442,232.076935 355.776825,234.593185 
	C371.408386,236.026642 385.958466,238.888351 399.413391,245.891754 
	C396.530029,246.212341 393.778534,246.020508 391.026611,246.014557 
	C377.724487,245.985779 364.422241,246.007004 351.221710,245.651703 
	C352.196228,242.147659 353.069092,239.002426 354.191589,234.957550 
	C328.778229,235.661926 304.047791,236.347382 279.317322,237.032822 
	C287.470978,238.902985 295.654266,239.855957 303.796875,241.079666 
	C311.271790,242.203033 318.702850,243.618271 325.761963,245.081467 
	C323.434967,245.505341 321.500458,245.954544 319.563263,245.966614 
	C308.517883,246.035461 297.470825,245.928970 286.427216,246.085022 
	C284.948578,246.105911 283.486115,247.274918 282.016144,247.912262 
z"/>
<path fill="#B1908D" opacity="1.000000" stroke="none" 
	d="
M439.229797,722.131836 
	C437.527191,722.961670 435.747162,723.619446 433.908539,723.970337 
	C430.409882,724.637817 426.883423,725.508057 423.357574,725.560425 
	C421.052917,725.594727 418.446198,724.784607 416.486115,723.544495 
	C414.091766,722.029724 412.331360,721.658752 410.508331,724.000122 
	C408.473328,726.613708 406.229340,726.094177 404.023254,724.365051 
	C401.812164,722.632202 399.777069,720.672424 397.542633,718.972778 
	C396.462830,718.151428 394.942688,717.023926 393.914429,717.267883 
	C392.878021,717.513794 392.127258,719.240173 391.406219,720.413086 
	C391.083923,720.937317 391.205750,721.714478 391.011902,722.341614 
	C390.436462,724.203430 389.804413,726.047668 389.194489,727.898804 
	C387.021454,727.000305 384.568481,726.479126 382.736969,725.120239 
	C379.501801,722.720154 377.491302,719.474426 372.330994,723.223511 
	C369.499481,725.280640 364.041351,723.613342 359.779816,723.847961 
	C356.733978,724.015625 353.708557,724.553284 350.282837,724.976685 
	C337.829559,708.765259 329.756287,690.736755 326.360657,670.424438 
	C334.239166,668.354248 342.210358,673.590637 349.383331,668.221741 
	C349.708160,667.978638 350.795654,668.838562 351.560150,669.084717 
	C355.530731,670.363037 359.494049,671.672607 363.510193,672.790649 
	C364.051941,672.941467 365.052856,672.221497 365.541046,671.648926 
	C367.473267,669.382629 369.697571,667.229614 371.052338,664.636841 
	C373.422791,660.100220 377.293152,660.734619 381.025879,661.252930 
	C384.915558,661.793030 385.263824,664.859741 385.035858,668.100464 
	C384.982117,668.864746 385.294312,669.654846 385.476288,670.639465 
	C389.206451,669.648438 393.207703,669.504211 396.060211,667.620483 
	C400.782928,664.501648 405.388580,664.794006 410.345978,665.848877 
	C419.939301,684.506348 429.532623,703.163757 439.229797,722.131836 
z"/>
<path fill="#B79692" opacity="1.000000" stroke="none" 
	d="
M433.956207,652.997742 
	C437.010101,652.452698 439.977325,651.846436 442.749237,654.221924 
	C443.533813,654.894348 445.844696,655.106140 446.379181,654.530212 
	C449.284393,651.400024 452.560089,652.519531 455.987122,652.912354 
	C459.011353,653.258972 462.109985,653.509583 464.550446,650.493896 
	C465.458527,649.371704 467.840881,649.275024 469.595306,649.037109 
	C474.603790,648.357727 479.634583,647.842651 484.657867,647.273682 
	C485.144470,647.218689 485.752808,647.043274 486.113708,647.252808 
	C491.751495,650.524780 496.930267,648.142639 502.715576,646.243286 
	C503.873993,647.268799 504.453735,648.075317 505.033447,648.881836 
	C506.777740,652.972656 512.822205,654.740295 517.965027,652.294739 
	C526.713867,648.134460 535.932007,648.926453 545.148071,649.187378 
	C547.858948,649.264221 550.710938,649.386597 553.266846,648.666687 
	C556.657288,647.711731 559.412476,647.878174 561.985107,650.921570 
	C554.362915,664.064331 546.556641,676.866821 538.061279,689.849243 
	C535.706299,689.545288 533.615540,689.536682 532.449097,688.494019 
	C527.755920,684.298523 524.303467,683.958069 518.689331,686.691406 
	C516.236267,687.885803 513.172180,688.070801 510.358307,688.228699 
	C504.042999,688.583191 497.394836,684.145691 491.420654,689.620728 
	C491.131500,689.885803 490.464905,689.847839 489.994232,689.789246 
	C484.407166,689.093628 478.823975,688.367126 473.394531,687.317932 
	C474.333130,685.171204 475.116943,683.355225 475.900757,681.539307 
	C475.461609,681.237183 475.022461,680.934998 474.583344,680.632874 
	C473.864136,681.666077 473.144928,682.699341 472.255371,683.423950 
	C470.317841,684.568054 468.550659,686.020691 466.533020,687.240479 
	C465.707489,686.031067 465.132446,685.054565 464.909851,684.033691 
	C465.584869,683.318237 465.907379,682.647034 466.229858,681.975891 
	C465.379211,682.203735 464.528534,682.431519 463.444214,682.423828 
	C462.388458,681.798706 461.566315,681.409119 459.654053,680.503052 
	C461.033112,682.716187 461.700104,683.786560 462.008850,685.003967 
	C460.518188,685.821899 459.451538,686.662781 458.240814,687.131287 
	C454.909943,688.420105 450.941711,689.421631 448.833954,685.980469 
	C445.662811,680.803162 443.079681,681.795227 439.831055,685.482178 
	C438.975281,686.453491 437.871063,687.205872 436.880920,688.058716 
	C431.585693,676.583435 426.290497,665.108093 421.046021,652.953796 
	C422.310669,652.977722 423.807037,653.436157 424.674957,654.438660 
	C426.119904,656.107666 427.161957,658.125366 428.710999,660.517090 
	C430.776245,657.556458 432.366211,655.277100 433.956207,652.997742 
z"/>
<path fill="#C4A19D" opacity="1.000000" stroke="none" 
	d="
M540.001160,609.003540 
	C538.342285,606.075684 533.101868,604.413696 529.415283,606.592346 
	C525.649658,608.817749 523.140320,607.622437 520.646484,605.091492 
	C518.736267,603.152954 517.046875,602.316345 514.777466,604.606262 
	C514.051575,605.338745 512.698608,605.973633 511.726624,605.858521 
	C500.026062,604.472778 488.446075,606.366211 476.815826,606.894165 
	C473.892151,607.026917 470.929382,606.059692 467.986664,606.072449 
	C464.454254,606.087769 462.146545,607.542358 463.797363,612.226440 
	C462.156433,615.724182 460.374237,618.682251 458.133972,622.400513 
	C455.819977,618.690918 453.842224,615.520386 451.864441,612.349792 
	C451.298462,610.452881 450.862885,606.980530 450.144836,606.921082 
	C446.202789,606.594788 441.560883,605.940308 438.385101,607.660950 
	C435.333527,609.314392 433.525726,609.561157 430.432159,608.413879 
	C423.192535,605.728821 415.645386,605.196533 407.620544,607.010986 
	C405.521027,596.202271 403.845764,585.387390 402.149933,574.575745 
	C401.692200,571.657593 403.040375,570.590088 405.824127,569.883972 
	C429.644592,563.841187 453.321503,564.976135 476.738403,571.626038 
	C486.458710,574.386353 495.824890,578.393677 505.598450,582.247681 
	C503.673737,585.872253 501.502686,589.083069 498.946960,592.862793 
	C496.395996,589.200317 494.324402,586.226135 492.252808,583.251953 
	C491.826538,583.552368 491.400238,583.852722 490.973969,584.153137 
	C493.503479,588.144226 496.032990,592.135254 499.292633,597.278320 
	C502.225128,591.564026 504.532654,587.067566 506.840149,582.571106 
	C519.537415,590.300964 532.283508,597.953186 544.875061,605.851562 
	C546.598083,606.932373 547.551575,609.239929 548.521606,611.362061 
	C547.534912,611.424133 546.887939,611.103821 546.167114,610.508179 
	C545.645020,609.862488 545.196716,609.492126 544.748413,609.121704 
	C544.600403,609.281372 544.452393,609.441040 544.304382,609.600708 
	C544.772095,610.158264 545.239807,610.715759 545.773315,611.584900 
	C546.383545,612.784241 546.927856,613.671997 547.718994,614.962280 
	C548.405640,613.804749 548.858887,613.040771 549.312073,612.276794 
	C550.845886,611.052856 552.024048,610.639709 551.903564,613.694519 
	C551.986816,614.012024 551.996155,613.976379 551.725952,613.999756 
	C551.296936,614.359436 551.138062,614.695801 550.979187,615.032104 
	C550.979187,615.032104 550.975464,614.981628 550.700256,615.103271 
	C550.280212,615.828552 550.135376,616.432312 549.990540,617.036011 
	C549.990540,617.036011 549.982361,616.987915 549.687866,617.030396 
	C548.252686,617.041077 547.112000,617.009277 545.971252,616.977478 
	C545.971252,616.977478 546.020508,616.983032 545.982178,616.716248 
	C545.617920,616.293945 545.292053,616.138489 544.966125,615.983032 
	C544.966125,615.983032 545.014832,615.988525 545.099365,615.688721 
	C544.780212,614.917358 544.376526,614.445801 543.972900,613.974304 
	C543.972900,613.974304 544.022278,613.982727 543.987549,613.713989 
	C543.623901,613.291138 543.294983,613.136963 542.966064,612.982788 
	C542.966064,612.982788 543.015015,612.988708 543.109619,612.688477 
	C542.793579,611.917114 542.382874,611.445984 541.972229,610.974915 
	C541.972229,610.974915 542.020813,610.984985 542.039001,610.664062 
	C541.371826,609.896606 540.686523,609.450073 540.001160,609.003540 
M417.956604,582.423584 
	C418.792908,583.489746 419.629181,584.555969 420.770264,586.010742 
	C423.409454,581.558167 425.704468,577.686340 427.999451,573.814514 
	C427.579407,573.538635 427.159363,573.262695 426.739288,572.986816 
	C424.747253,575.965576 422.755219,578.944336 420.478760,582.348389 
	C418.032135,579.030518 415.911896,576.155212 413.791687,573.279968 
	C413.414764,573.547180 413.037872,573.814331 412.660980,574.081543 
	C414.295654,576.668579 415.930328,579.255554 417.956604,582.423584 
z"/>
<path fill="#AC8B87" opacity="1.000000" stroke="none" 
	d="
M521.097961,762.006592 
	C526.775452,748.933594 532.453003,735.860596 538.534119,722.884521 
	C540.722534,725.065308 542.507324,727.149170 543.601746,728.427002 
	C547.356323,727.841187 550.054077,727.427979 552.748840,726.996887 
	C554.363220,726.738525 556.413025,726.986023 557.507751,726.084290 
	C561.921692,722.449036 565.070984,724.884888 568.283752,727.786377 
	C569.474060,728.861389 570.676941,729.922485 572.431580,731.487000 
	C575.163696,725.802124 578.879395,724.910706 583.747314,728.158081 
	C584.308228,728.532288 586.459839,727.232483 587.369812,726.244446 
	C590.558350,722.782288 595.234558,722.150330 599.575073,723.930908 
	C603.272400,725.447571 607.318176,726.581787 611.283875,726.871399 
	C617.798767,727.347107 624.373657,727.002380 630.923218,727.003540 
	C635.304688,741.725342 639.686157,756.447205 643.666260,771.576660 
	C638.327332,771.062683 638.985718,767.142029 639.051025,763.754395 
	C639.115479,760.408752 637.863831,758.236816 634.454346,759.118469 
	C629.790466,760.324402 625.315918,762.255188 620.744629,763.830017 
	C618.493103,764.605713 616.246704,765.670776 613.926697,765.908203 
	C610.467773,766.262207 606.941467,766.109741 603.451416,765.976135 
	C597.064453,765.731689 590.501587,767.176331 584.419800,763.530457 
	C583.577209,763.025330 581.037842,764.937805 579.536804,766.067200 
	C578.204407,767.069641 576.685425,769.792603 576.184204,769.577393 
	C574.380798,768.803162 572.299988,767.404053 571.548645,765.700745 
	C569.668335,761.438049 566.841675,762.755188 564.221436,764.099060 
	C562.873108,764.790649 562.318359,767.062439 560.968384,767.710083 
	C558.755798,768.771545 556.092224,769.764099 553.809021,769.441345 
	C552.657593,769.278564 551.753601,766.227417 551.059875,764.362488 
	C550.589478,763.098083 550.679382,761.625305 550.362488,758.905029 
	C548.305054,760.798584 547.298706,761.998718 546.043091,762.815613 
	C544.195190,764.017761 542.155396,765.850647 540.222290,765.820374 
	C534.688477,765.733765 528.528687,768.013000 523.945435,762.593567 
	C523.453125,762.011536 522.068604,762.184082 521.097961,762.006592 
z"/>
<path fill="#EDC9C5" opacity="1.000000" stroke="none" 
	d="
M282.404266,247.997040 
	C283.486115,247.274918 284.948578,246.105911 286.427216,246.085022 
	C297.470825,245.928970 308.517883,246.035461 319.563263,245.966614 
	C321.500458,245.954544 323.434967,245.505341 326.194641,245.082138 
	C332.243073,245.510162 337.455414,246.297318 342.696930,246.643646 
	C345.478546,246.827438 348.310699,246.246323 351.120056,246.010498 
	C364.422241,246.007004 377.724487,245.985779 391.026611,246.014557 
	C393.778534,246.020508 396.530029,246.212341 399.629578,246.165878 
	C415.279480,252.575424 426.212189,263.800903 433.963898,278.266724 
	C434.591400,279.437775 433.975800,281.806183 433.156097,283.136475 
	C427.235992,292.744110 417.863586,296.939911 407.324768,299.371613 
	C392.205872,302.860168 378.282928,300.695038 365.954132,290.921478 
	C358.271881,284.831421 353.046936,276.910675 351.201172,267.315521 
	C350.290955,262.583771 348.175323,260.849976 343.732849,260.037628 
	C324.016113,256.432343 304.349945,252.550583 284.668915,248.750931 
	C284.024384,248.626480 283.417053,248.309189 282.404266,247.997040 
z"/>
<path fill="#A88783" opacity="1.000000" stroke="none" 
	d="
M520.897827,762.308411 
	C522.068604,762.184082 523.453125,762.011536 523.945435,762.593567 
	C528.528687,768.013000 534.688477,765.733765 540.222290,765.820374 
	C542.155396,765.850647 544.195190,764.017761 546.043091,762.815613 
	C547.298706,761.998718 548.305054,760.798584 550.362488,758.905029 
	C550.679382,761.625305 550.589478,763.098083 551.059875,764.362488 
	C551.753601,766.227417 552.657593,769.278564 553.809021,769.441345 
	C556.092224,769.764099 558.755798,768.771545 560.968384,767.710083 
	C562.318359,767.062439 562.873108,764.790649 564.221436,764.099060 
	C566.841675,762.755188 569.668335,761.438049 571.548645,765.700745 
	C572.299988,767.404053 574.380798,768.803162 576.184204,769.577393 
	C576.685425,769.792603 578.204407,767.069641 579.536804,766.067200 
	C581.037842,764.937805 583.577209,763.025330 584.419800,763.530457 
	C590.501587,767.176331 597.064453,765.731689 603.451416,765.976135 
	C606.941467,766.109741 610.467773,766.262207 613.926697,765.908203 
	C616.246704,765.670776 618.493103,764.605713 620.744629,763.830017 
	C625.315918,762.255188 629.790466,760.324402 634.454346,759.118469 
	C637.863831,758.236816 639.115479,760.408752 639.051025,763.754395 
	C638.985718,767.142029 638.327332,771.062683 643.654785,771.990417 
	C645.367493,778.726624 646.690247,785.456726 647.975098,792.603882 
	C644.818054,793.020996 641.698914,793.020996 638.460815,793.020996 
	C638.460815,795.604797 638.460815,797.610596 638.460815,799.616394 
	C637.243530,798.031799 636.148071,796.331909 634.781372,794.888855 
	C632.542114,792.524597 630.496399,791.259705 626.403320,791.631226 
	C613.701172,792.784424 600.877563,792.886108 588.106812,792.770386 
	C585.377197,792.745667 582.671448,790.086121 579.211060,788.244690 
	C575.868896,794.342773 569.534302,792.978699 563.616089,792.991150 
	C549.990295,793.019714 536.355469,792.721985 522.743469,793.156616 
	C518.079590,793.305481 515.399719,790.843872 512.114868,788.142334 
	C514.843384,779.437317 517.770508,771.023743 520.897827,762.308411 
z"/>
<path fill="#BE9B98" opacity="1.000000" stroke="none" 
	d="
M410.270294,665.473511 
	C405.388580,664.794006 400.782928,664.501648 396.060211,667.620483 
	C393.207703,669.504211 389.206451,669.648438 385.476288,670.639465 
	C385.294312,669.654846 384.982117,668.864746 385.035858,668.100464 
	C385.263824,664.859741 384.915558,661.793030 381.025879,661.252930 
	C377.293152,660.734619 373.422791,660.100220 371.052338,664.636841 
	C369.697571,667.229614 367.473267,669.382629 365.541046,671.648926 
	C365.052856,672.221497 364.051941,672.941467 363.510193,672.790649 
	C359.494049,671.672607 355.530731,670.363037 351.560150,669.084717 
	C350.795654,668.838562 349.708160,667.978638 349.383331,668.221741 
	C342.210358,673.590637 334.239166,668.354248 326.343842,670.012878 
	C321.068817,654.985168 324.889191,641.078552 331.470398,627.555054 
	C332.334625,625.779358 333.489349,624.144958 335.069366,622.382202 
	C337.835144,624.945007 339.899994,624.929626 342.827118,622.929688 
	C344.429474,621.834900 347.243561,621.978027 349.384247,622.331604 
	C352.644196,622.869995 355.815155,624.899170 358.985931,624.817688 
	C364.715302,624.670410 370.423370,623.474731 376.120361,622.588440 
	C376.761719,622.488647 377.241425,621.519775 377.853180,621.024414 
	C379.118530,619.999817 380.655365,618.023376 381.656586,618.256836 
	C383.218567,618.620911 384.368195,620.572449 385.803406,621.711609 
	C387.291443,622.892822 388.778259,624.394653 390.508606,624.868042 
	C392.518372,625.417786 394.792358,625.001526 396.951660,625.004578 
	C401.365967,638.369080 405.780273,651.733643 410.270294,665.473511 
z"/>
<path fill="#C9A7A2" opacity="1.000000" stroke="none" 
	d="
M390.968140,533.001343 
	C390.975952,539.633850 390.830475,546.271667 391.059723,552.896484 
	C391.165649,555.957642 390.301056,557.552429 387.343079,558.863586 
	C369.167877,566.919983 352.589844,577.429260 338.003296,591.570374 
	C336.535126,585.134033 335.623230,578.811218 334.711365,572.488464 
	C334.197418,572.558105 333.683472,572.627747 333.169525,572.697327 
	C333.824951,580.153320 334.480347,587.609253 335.135803,595.065247 
	C334.607056,595.651611 334.078308,596.237915 333.278381,596.493530 
	C332.011902,588.907227 331.016602,581.651733 330.021332,574.396240 
	C329.371490,574.488464 328.721649,574.580688 328.071808,574.672852 
	C328.760925,583.470032 329.450043,592.267212 330.139160,601.064392 
	C328.294342,603.616882 326.449524,606.169373 324.315063,608.385864 
	C324.025391,596.823242 324.025391,585.596619 324.025391,574.369995 
	C323.322021,574.340637 322.618652,574.311279 321.915314,574.281921 
	C321.626068,575.789062 321.059296,577.302246 321.092407,578.802307 
	C321.315887,588.929993 321.653931,599.055298 322.007294,609.179565 
	C322.028168,609.777161 322.503174,610.358887 322.766815,610.947998 
	C321.759460,613.151245 320.752106,615.354553 319.744720,617.557800 
	C314.868042,599.148499 313.008209,580.669434 313.363953,561.504333 
	C313.591614,561.039978 313.928162,561.027832 314.243286,560.829102 
	C316.700928,550.752014 318.843445,540.873596 321.357391,530.999329 
	C322.224030,531.014465 322.719208,531.025452 323.177612,531.485291 
	C322.007843,541.772217 320.874847,551.610229 319.741852,561.448303 
	C320.422607,561.606201 321.103363,561.764099 321.784149,561.922058 
	C322.519684,559.750977 323.507965,557.629456 323.944641,555.399902 
	C325.402954,547.954102 326.663666,540.469666 328.385956,533.000000 
	C329.543427,533.002991 330.315063,533.005981 331.067261,533.449951 
	C330.154236,543.810303 329.260681,553.729736 328.367096,563.649170 
	C329.066223,563.713745 329.765350,563.778259 330.464447,563.842834 
	C331.679077,552.234131 332.893677,540.625366 334.509460,529.011597 
	C335.980469,529.010315 337.050323,529.014038 338.088440,529.481323 
	C337.274109,541.760925 336.491547,553.577026 335.709015,565.393066 
	C336.249725,565.445190 336.790436,565.497314 337.331146,565.549500 
	C338.521149,552.711365 339.711121,539.873230 341.309937,527.025330 
	C344.617798,528.314697 347.470642,529.734192 350.432098,530.870850 
	C352.423676,531.635193 354.574188,532.451477 356.643921,532.427124 
	C359.180298,532.397217 361.725311,531.590393 364.231262,530.975464 
	C366.273071,530.474365 368.583191,530.216003 370.219574,529.062805 
	C376.869781,524.376282 381.230804,524.642883 386.933807,530.359497 
	C388.044922,531.473206 389.611572,532.132507 390.968140,533.001343 
M356.253296,570.929626 
	C356.995483,559.001343 357.737640,547.073120 358.479828,535.144836 
	C357.814484,535.110901 357.149139,535.077026 356.483795,535.043091 
	C356.175079,547.071960 355.866394,559.100769 356.253296,570.929626 
M349.975891,565.055786 
	C349.975891,566.339783 349.975891,567.623779 349.975891,568.907776 
	C350.389648,568.912109 350.803436,568.916382 351.217194,568.920715 
	C351.217194,558.295593 351.217194,547.670471 351.217194,537.045288 
	C351.102997,537.029968 350.988800,537.014709 350.874603,536.999390 
	C350.576294,546.053406 350.277985,555.107361 349.975891,565.055786 
z"/>
<path fill="#DBB8B3" opacity="1.000000" stroke="none" 
	d="
M439.079742,356.971436 
	C436.584625,365.870636 434.500153,374.910370 431.511414,383.640594 
	C424.668793,403.628357 417.384460,423.464935 409.716675,443.626556 
	C407.227051,443.629608 405.275848,443.032227 403.377808,443.169647 
	C396.904449,443.638336 390.449799,444.365753 383.988953,444.708679 
	C383.814911,443.906067 383.639923,443.389221 383.464966,442.872375 
	C382.984192,443.248901 382.503448,443.625427 381.616028,444.001221 
	C380.124908,443.993835 379.040466,443.987183 377.965332,443.666687 
	C377.779877,442.802094 377.585114,442.251312 377.390350,441.700562 
	C377.035065,441.981720 376.581177,442.197998 376.344849,442.557312 
	C375.836639,443.330017 375.440491,444.176361 374.844299,444.698975 
	C373.746979,443.923218 372.803833,443.441040 371.917725,442.602112 
	C372.481110,440.454102 372.987427,438.662872 373.493744,436.871613 
	C373.190887,436.806335 372.888000,436.741089 372.585144,436.675812 
	C370.777283,440.795593 368.969421,444.915344 366.859375,448.918579 
	C365.745361,448.539520 364.933533,448.277039 364.208252,447.668610 
	C365.997467,442.611542 367.700195,437.900360 369.693726,432.384674 
	C367.787872,433.393250 366.941406,433.841187 366.189178,433.923645 
	C367.182007,430.373840 368.080627,427.189545 368.986206,423.999603 
	C368.993164,423.993988 369.000153,423.975739 369.329041,423.823425 
	C370.077942,422.087677 370.497925,420.504303 370.917908,418.920898 
	C377.801300,410.037842 384.510345,401.012543 391.611023,392.306702 
	C401.016449,380.775116 410.728058,369.493317 420.830383,358.225281 
	C427.261658,357.888092 433.170715,357.429749 439.079742,356.971436 
M378.263916,438.818970 
	C378.376038,438.975250 378.488129,439.131531 378.600250,439.287811 
	C378.578094,439.069977 378.555908,438.852112 378.263916,438.818970 
M379.721527,436.182800 
	C379.615265,436.033997 379.508972,435.885223 379.402649,435.736420 
	C379.423248,435.943329 379.443817,436.150269 379.721527,436.182800 
z"/>
<path fill="#B1908D" opacity="1.000000" stroke="none" 
	d="
M436.981567,688.397705 
	C437.871063,687.205872 438.975281,686.453491 439.831055,685.482178 
	C443.079681,681.795227 445.662811,680.803162 448.833954,685.980469 
	C450.941711,689.421631 454.909943,688.420105 458.240814,687.131287 
	C459.451538,686.662781 460.518188,685.821899 462.249420,685.221008 
	C464.728607,688.106018 466.608978,690.921021 468.763763,694.146851 
	C470.488403,691.643066 471.864075,689.645874 473.239746,687.648743 
	C478.823975,688.367126 484.407166,689.093628 489.994232,689.789246 
	C490.464905,689.847839 491.131500,689.885803 491.420654,689.620728 
	C497.394836,684.145691 504.042999,688.583191 510.358307,688.228699 
	C513.172180,688.070801 516.236267,687.885803 518.689331,686.691406 
	C524.303467,683.958069 527.755920,684.298523 532.449097,688.494019 
	C533.615540,689.536682 535.706299,689.545288 537.794312,690.049988 
	C531.975525,703.222290 525.734619,716.373840 518.796021,729.761841 
	C514.986633,729.658569 511.382416,730.208679 508.856140,728.810852 
	C501.490662,724.735046 493.704315,726.175659 486.052094,726.116516 
	C483.455475,726.096497 480.881714,727.634033 478.233307,728.068542 
	C476.683929,728.322754 474.542023,728.391174 473.465057,727.536743 
	C467.015381,722.420166 467.093140,722.322144 460.835327,727.073975 
	C452.917603,714.294861 444.999908,701.515808 436.981567,688.397705 
M521.826355,697.330811 
	C521.487610,696.916504 521.148804,696.502258 521.357239,695.707886 
	C521.405457,695.027283 521.453674,694.346619 521.501831,693.666016 
	C520.917542,693.916199 520.333191,694.166382 519.235962,693.985168 
	C518.723206,693.647583 518.210449,693.309998 517.697754,692.972412 
	C517.400024,693.203552 517.102356,693.434631 516.804626,693.665771 
	C519.296143,697.515564 521.787659,701.365356 524.869324,706.127014 
	C527.712402,701.369690 530.000732,697.540588 532.839233,692.790955 
	C530.592712,693.520996 529.571777,693.852722 527.696716,694.068481 
	C525.924438,695.172852 524.152161,696.277222 521.826355,697.330811 
z"/>
<path fill="#B1908D" opacity="1.000000" stroke="none" 
	d="
M630.912109,726.631653 
	C624.373657,727.002380 617.798767,727.347107 611.283875,726.871399 
	C607.318176,726.581787 603.272400,725.447571 599.575073,723.930908 
	C595.234558,722.150330 590.558350,722.782288 587.369812,726.244446 
	C586.459839,727.232483 584.308228,728.532288 583.747314,728.158081 
	C578.879395,724.910706 575.163696,725.802124 572.431580,731.487000 
	C570.676941,729.922485 569.474060,728.861389 568.283752,727.786377 
	C565.070984,724.884888 561.921692,722.449036 557.507751,726.084290 
	C556.413025,726.986023 554.363220,726.738525 552.748840,726.996887 
	C550.054077,727.427979 547.356323,727.841187 543.601746,728.427002 
	C542.507324,727.149170 540.722534,725.065308 538.765137,722.599670 
	C543.352661,713.341919 548.112793,704.465881 553.426514,695.292236 
	C554.610779,694.814331 555.506042,694.839539 555.830811,694.421570 
	C558.804871,690.593994 562.369019,689.593079 567.142456,690.852051 
	C569.745544,691.538574 572.753418,690.519531 575.539246,690.748901 
	C577.165039,690.882812 579.500916,691.524231 580.152588,692.696228 
	C582.375244,696.693359 584.050964,696.482117 586.565308,692.993347 
	C590.356018,687.733521 595.846558,687.559387 599.736694,692.695923 
	C601.981506,695.659973 603.655762,695.211487 606.321777,693.355042 
	C608.545288,691.806763 611.348938,691.091553 613.895630,690.007324 
	C619.564087,702.091492 625.232544,714.175659 630.912109,726.631653 
z"/>
<path fill="#CFACA7" opacity="1.000000" stroke="none" 
	d="
M338.120178,529.017822 
	C337.050323,529.014038 335.980469,529.010315 334.474548,528.696045 
	C333.601318,528.126465 333.164185,527.867310 332.727051,527.608215 
	C332.180267,529.408447 331.633484,531.208740 331.086700,533.008972 
	C330.315063,533.005981 329.543427,533.002991 328.381195,532.575928 
	C328.211975,529.618835 328.433380,527.085815 328.654755,524.552795 
	C326.832550,524.764465 325.714325,525.550598 325.065979,526.621277 
	C324.248291,527.971619 323.814056,529.554138 323.214386,531.036499 
	C322.719208,531.025452 322.224030,531.014465 321.350952,530.544312 
	C320.000732,526.748352 323.240112,522.595703 318.998474,519.652588 
	C318.998199,519.413269 318.969177,518.935486 318.969177,518.935486 
	C321.757812,510.520569 324.364807,502.039215 327.409882,493.718140 
	C328.987427,489.407288 331.340942,485.380402 333.652924,481.472595 
	C330.716492,491.541077 327.470978,501.362183 324.225494,511.183258 
	C324.612366,511.348633 324.999237,511.514008 325.386108,511.679352 
	C328.275787,504.792236 331.165466,497.905090 334.381958,491.014954 
	C335.466339,491.324341 336.223907,491.636688 336.930267,492.317230 
	C334.600525,500.016296 332.322021,507.347168 330.043549,514.678040 
	C330.725494,514.891846 331.407440,515.105713 332.089386,515.319519 
	C334.753052,507.220947 337.416718,499.122406 340.460510,491.016602 
	C341.854370,491.016479 342.868134,491.023651 343.860046,491.401215 
	C341.303528,500.437012 338.768829,509.102417 336.234131,517.767822 
	C336.935852,517.966064 337.637543,518.164246 338.339264,518.362488 
	C341.565155,507.910492 344.791046,497.458496 348.313507,487.030396 
	C349.078339,487.376434 349.546570,487.698578 350.002716,488.418274 
	C347.039917,499.000153 344.089203,509.184448 341.138489,519.368713 
	C341.614929,519.551758 342.091370,519.734741 342.567810,519.917786 
	C343.343811,518.281677 344.359161,516.714783 344.856232,514.997925 
	C347.647888,505.354950 350.314606,495.675873 353.404663,485.999573 
	C357.484406,485.039337 361.140015,483.608215 364.894440,483.268219 
	C368.945160,482.901367 373.103027,483.878479 377.187897,483.692719 
	C384.409821,483.364349 391.611908,482.599182 398.822296,482.016785 
	C397.239441,489.784393 395.317383,497.502197 394.167389,505.333344 
	C392.973938,513.460327 392.535645,521.697754 391.743011,529.884583 
	C391.664093,530.699585 391.418182,531.498474 391.108948,532.653076 
	C389.611572,532.132507 388.044922,531.473206 386.933807,530.359497 
	C381.230804,524.642883 376.869781,524.376282 370.219574,529.062805 
	C368.583191,530.216003 366.273071,530.474365 364.231262,530.975464 
	C361.725311,531.590393 359.180298,532.397217 356.643921,532.427124 
	C354.574188,532.451477 352.423676,531.635193 350.432098,530.870850 
	C347.470642,529.734192 344.617798,528.314697 341.012512,527.058289 
	C339.577576,527.739929 338.848877,528.378906 338.120178,529.017822 
M360.542938,526.497803 
	C363.073303,515.288269 365.603668,504.078796 368.134033,492.869293 
	C367.440491,492.729736 366.746979,492.590179 366.053467,492.450623 
	C364.039642,503.969666 362.025818,515.488708 359.614288,527.243958 
	C359.626038,527.578552 359.637787,527.913147 359.649536,528.247742 
	C359.762115,527.827332 359.874664,527.406982 360.542938,526.497803 
M347.158844,519.462646 
	C346.847321,521.039673 346.535828,522.616699 346.224304,524.193726 
	C346.651459,524.293518 347.078644,524.393311 347.505798,524.493103 
	C350.484375,512.803040 353.462921,501.112976 356.441498,489.422882 
	C355.864746,489.277740 355.287994,489.132599 354.711212,488.987457 
	C352.259857,498.891693 349.808472,508.795959 347.158844,519.462646 
M358.062378,498.724884 
	C356.321198,507.763733 354.579987,516.802551 352.838806,525.841431 
	C353.363586,525.937500 353.888367,526.033508 354.413147,526.129578 
	C356.766663,514.485291 359.120148,502.840942 361.473663,491.196594 
	C361.049683,491.099182 360.625671,491.001770 360.201691,490.904388 
	C359.537689,493.239777 358.873688,495.575195 358.062378,498.724884 
M323.485565,513.576477 
	C323.485565,513.576477 323.420288,513.460022 323.485565,513.576477 
z"/>
<path fill="#D6B4AF" opacity="1.000000" stroke="none" 
	d="
M336.981506,491.949036 
	C336.223907,491.636688 335.466339,491.324341 334.411285,490.633575 
	C335.004211,487.281097 336.138519,484.352722 336.706787,481.318329 
	C337.150879,478.947235 336.892487,476.444519 336.946228,474.000305 
	C346.656769,457.987793 356.367279,441.975281 366.470642,425.922791 
	C366.863434,425.882843 366.992554,425.994781 366.947388,426.353882 
	C360.176331,440.748901 353.450470,454.784821 346.724579,468.820740 
	C347.281433,469.093933 347.838257,469.367157 348.395081,469.640350 
	C351.960663,462.766174 355.526215,455.891998 359.457916,449.015503 
	C360.316833,449.029816 360.809601,449.046417 361.241516,449.447327 
	C360.412354,452.595306 359.644104,455.358917 358.875854,458.122559 
	C359.254395,458.248596 359.632935,458.374634 360.011505,458.500671 
	C361.381561,455.005280 362.751617,451.509918 364.121704,448.014526 
	C364.933533,448.277039 365.745361,448.539520 366.784973,449.290283 
	C365.603821,454.131195 364.194885,458.483826 362.785980,462.836456 
	C363.207001,462.970154 363.628052,463.103851 364.049103,463.237579 
	C366.652954,456.477997 369.256805,449.718445 371.860657,442.958893 
	C372.803833,443.441040 373.746979,443.923218 374.799011,445.070923 
	C372.453064,452.678040 369.998199,459.619598 367.543365,466.561157 
	C367.941437,466.690033 368.339539,466.818939 368.737640,466.947815 
	C371.810425,459.292053 374.883240,451.636322 377.956055,443.980560 
	C379.040466,443.987183 380.124908,443.993835 381.565369,444.371613 
	C379.110535,452.413422 376.299622,460.084045 373.488739,467.754700 
	C373.936798,467.919128 374.384827,468.083527 374.832855,468.247955 
	C377.884583,460.496796 380.936279,452.745605 383.988007,444.994446 
	C390.449799,444.365753 396.904449,443.638336 403.377808,443.169647 
	C405.275848,443.032227 407.227051,443.629608 409.542145,443.946472 
	C408.119690,449.066437 406.017334,454.048553 404.571747,459.214447 
	C402.748444,465.730103 401.468475,472.397430 399.932770,478.994354 
	C399.747864,479.788727 399.430420,480.552216 398.998352,481.673401 
	C391.611908,482.599182 384.409821,483.364349 377.187897,483.692719 
	C373.103027,483.878479 368.945160,482.901367 364.894440,483.268219 
	C361.140015,483.608215 357.484406,485.039337 353.395813,485.690735 
	C352.885284,484.857880 352.764252,484.324341 352.523102,483.261169 
	C351.496826,485.208557 350.755798,486.614624 350.014801,488.020721 
	C349.546570,487.698578 349.078339,487.376434 348.310028,486.634094 
	C347.930389,484.737732 347.850830,483.261566 347.771240,481.785370 
	C347.431122,481.780060 347.090973,481.774750 346.750824,481.769440 
	C345.794525,484.856567 344.838196,487.943695 343.881897,491.030823 
	C342.868134,491.023651 341.854370,491.016479 340.448944,490.624603 
	C341.031464,486.714569 342.005646,483.189301 342.979858,479.664001 
	C342.446320,479.490692 341.912811,479.317413 341.379272,479.144104 
	C339.913361,483.412415 338.447418,487.680725 336.981506,491.949036 
M358.754333,460.808075 
	C358.589050,460.868652 358.423798,460.929230 358.258514,460.989838 
	C358.423279,461.046539 358.588043,461.103241 358.754333,460.808075 
M362.460999,466.353241 
	C362.517883,466.119659 362.574738,465.886078 362.631561,465.652466 
	C362.499207,465.799805 362.366852,465.947144 362.460999,466.353241 
z"/>
<path fill="#C4A19D" opacity="1.000000" stroke="none" 
	d="
M396.968445,624.594910 
	C394.792358,625.001526 392.518372,625.417786 390.508606,624.868042 
	C388.778259,624.394653 387.291443,622.892822 385.803406,621.711609 
	C384.368195,620.572449 383.218567,618.620911 381.656586,618.256836 
	C380.655365,618.023376 379.118530,619.999817 377.853180,621.024414 
	C377.241425,621.519775 376.761719,622.488647 376.120361,622.588440 
	C370.423370,623.474731 364.715302,624.670410 358.985931,624.817688 
	C355.815155,624.899170 352.644196,622.869995 349.384247,622.331604 
	C347.243561,621.978027 344.429474,621.834900 342.827118,622.929688 
	C339.899994,624.929626 337.835144,624.945007 335.333130,622.170654 
	C343.017090,608.059875 355.193237,598.405640 368.432251,589.980042 
	C374.932312,585.843201 381.865753,582.387329 388.643768,578.600586 
	C391.531403,594.380981 394.258301,609.283142 396.968445,624.594910 
z"/>
<path fill="#AC8B87" opacity="1.000000" stroke="none" 
	d="
M460.936096,727.403992 
	C467.093140,722.322144 467.015381,722.420166 473.465057,727.536743 
	C474.542023,728.391174 476.683929,728.322754 478.233307,728.068542 
	C480.881714,727.634033 483.455475,726.096497 486.052094,726.116516 
	C493.704315,726.175659 501.490662,724.735046 508.856140,728.810852 
	C511.382416,730.208679 514.986633,729.658569 518.541504,729.996948 
	C513.432617,744.229187 507.880585,758.462769 502.111450,773.252991 
	C487.079315,758.959167 472.208191,745.042175 460.936096,727.403992 
M497.120331,743.957031 
	C495.475464,740.683411 494.696564,743.133789 493.265839,743.964844 
	C492.907867,743.115540 492.549866,742.266296 492.857208,741.101135 
	C492.908752,740.108276 492.960327,739.115356 493.011902,738.122498 
	C492.054474,738.397949 491.097015,738.673401 489.635803,738.531494 
	C489.229492,738.957520 488.399841,739.643799 488.478485,739.771790 
	C490.675018,743.345459 492.963562,746.862549 495.676117,751.070251 
	C498.517029,746.372864 500.834839,742.540405 503.909943,737.455811 
	C501.971588,738.425781 501.435211,738.694214 500.318604,738.705322 
	C499.388885,738.914246 498.459167,739.123108 497.529449,739.331970 
	C498.208893,739.932739 498.888336,740.533508 499.291382,741.790588 
	C498.626434,742.767029 497.961456,743.743469 497.120331,743.957031 
z"/>
<path fill="#B79692" opacity="1.000000" stroke="none" 
	d="
M613.906921,689.649475 
	C611.348938,691.091553 608.545288,691.806763 606.321777,693.355042 
	C603.655762,695.211487 601.981506,695.659973 599.736694,692.695923 
	C595.846558,687.559387 590.356018,687.733521 586.565308,692.993347 
	C584.050964,696.482117 582.375244,696.693359 580.152588,692.696228 
	C579.500916,691.524231 577.165039,690.882812 575.539246,690.748901 
	C572.753418,690.519531 569.745544,691.538574 567.142456,690.852051 
	C562.369019,689.593079 558.804871,690.593994 555.830811,694.421570 
	C555.506042,694.839539 554.610779,694.814331 553.635315,695.007690 
	C562.710632,678.521667 574.247375,663.622742 587.601868,649.272339 
	C597.791565,661.995361 606.539551,675.181885 613.906921,689.649475 
z"/>
<path fill="#916E68" opacity="1.000000" stroke="none" 
	d="
M431.259460,1026.481689 
	C432.554932,1024.399414 434.598083,1022.879700 434.811584,1021.136047 
	C435.209106,1017.889832 435.298279,1015.639221 439.633087,1016.727173 
	C441.398163,1017.170105 443.500458,1016.269409 445.891174,1015.970581 
	C446.333008,1043.684326 446.333008,1071.407593 446.333008,1099.467285 
	C441.477661,1099.467285 436.736633,1099.467285 431.181580,1099.467285 
	C431.181580,1075.317261 431.181580,1051.130249 431.259460,1026.481689 
z"/>
<path fill="#A3837E" opacity="1.000000" stroke="none" 
	d="
M446.524963,874.610596 
	C442.027008,875.217957 437.670746,875.754272 437.298706,869.194153 
	C437.233429,868.043091 433.929749,867.075745 431.737457,866.030396 
	C431.292480,848.339294 431.231720,830.641357 431.248047,812.481689 
	C433.980286,813.310547 436.635529,814.601013 439.290588,815.891785 
	C441.429382,816.931580 443.567993,817.971802 446.076050,819.015991 
	C446.520111,837.398926 446.594818,855.777527 446.524963,874.610596 
z"/>
<path fill="#EDC9C5" opacity="1.000000" stroke="none" 
	d="
M439.247192,356.642334 
	C433.170715,357.429749 427.261658,357.888092 421.096375,358.009399 
	C422.578369,354.112549 424.364227,350.575012 426.046997,346.989105 
	C435.035461,327.835114 437.450989,307.673218 435.217529,286.804840 
	C435.129211,285.979614 435.071503,285.146820 435.074921,284.317871 
	C435.076660,283.890076 435.244415,283.462952 435.653137,281.579437 
	C444.216644,307.076172 447.028076,331.412933 439.247192,356.642334 
z"/>
<path fill="#F2CEC8" opacity="1.000000" stroke="none" 
	d="
M336.655212,474.162048 
	C336.892487,476.444519 337.150879,478.947235 336.706787,481.318329 
	C336.138519,484.352722 335.004211,487.281097 334.084503,490.636536 
	C331.165466,497.905090 328.275787,504.792236 325.386108,511.679352 
	C324.999237,511.514008 324.612366,511.348633 324.225494,511.183258 
	C327.470978,501.362183 330.716492,491.541077 333.965759,481.320740 
	C333.969513,480.921478 333.998474,480.977264 334.190491,480.860413 
	C334.290314,480.195129 334.198090,479.646637 334.105835,479.098175 
	C334.858643,477.506714 335.611420,475.915253 336.655212,474.162048 
z"/>
<path fill="#F2CEC8" opacity="1.000000" stroke="none" 
	d="
M323.071533,610.840942 
	C322.503174,610.358887 322.028168,609.777161 322.007294,609.179565 
	C321.653931,599.055298 321.315887,588.929993 321.092407,578.802307 
	C321.059296,577.302246 321.626068,575.789062 321.915314,574.281921 
	C322.618652,574.311279 323.322021,574.340637 324.025391,574.369995 
	C324.025391,585.596619 324.025391,596.823242 324.008301,608.516479 
	C323.786255,609.566711 323.581268,610.150269 323.071533,610.840942 
z"/>
<path fill="#D6B4AF" opacity="1.000000" stroke="none" 
	d="
M318.719788,519.217407 
	C318.969177,518.935486 318.998199,519.413269 318.996704,520.107788 
	C318.907440,522.621399 318.952209,524.458191 318.710388,526.256531 
	C317.151215,537.851624 315.529419,549.438354 313.928162,561.027832 
	C313.928162,561.027832 313.591614,561.039978 313.424377,561.044739 
	C313.237305,546.978882 314.810364,533.108154 318.719788,519.217407 
z"/>
<path fill="#F2CEC8" opacity="1.000000" stroke="none" 
	d="
M330.412903,600.897827 
	C329.450043,592.267212 328.760925,583.470032 328.071808,574.672852 
	C328.721649,574.580688 329.371490,574.488464 330.021332,574.396240 
	C331.016602,581.651733 332.011902,588.907227 332.999084,596.596191 
	C332.222900,598.263550 331.454803,599.497437 330.412903,600.897827 
z"/>
<path fill="#E7F6FC" opacity="1.000000" stroke="none" 
	d="
M434.054504,652.667664 
	C432.366211,655.277100 430.776245,657.556458 428.710999,660.517090 
	C427.161957,658.125366 426.119904,656.107666 424.674957,654.438660 
	C423.807037,653.436157 422.310669,652.977722 420.898499,652.602539 
	C420.463593,652.543579 420.226929,652.156799 420.297729,651.398499 
	C420.393158,650.510193 420.181122,649.993530 419.969086,649.476807 
	C419.969086,649.476807 419.955414,649.454834 419.943481,649.466919 
	C420.578491,648.835205 421.225433,648.191345 422.186737,647.234619 
	C424.330109,650.450806 426.388031,653.538757 428.734802,657.060181 
	C431.022156,653.650330 433.088593,650.569824 435.154999,647.489258 
	C435.488647,647.646301 435.822296,647.803345 436.155945,647.960388 
	C435.488251,649.419434 434.820526,650.878540 434.054504,652.667664 
z"/>
<path fill="#E7F6FC" opacity="1.000000" stroke="none" 
	d="
M506.744690,582.435425 
	C504.532654,587.067566 502.225128,591.564026 499.292633,597.278320 
	C496.032990,592.135254 493.503479,588.144226 490.973969,584.153137 
	C491.400238,583.852722 491.826538,583.552368 492.252808,583.251953 
	C494.324402,586.226135 496.395996,589.200317 498.946960,592.862793 
	C501.502686,589.083069 503.673737,585.872253 505.949280,582.332886 
	C506.279175,582.048706 506.477631,582.147156 506.744690,582.435425 
z"/>
<path fill="#F2CEC8" opacity="1.000000" stroke="none" 
	d="
M335.397888,594.916504 
	C334.480347,587.609253 333.824951,580.153320 333.169525,572.697327 
	C333.683472,572.627747 334.197418,572.558105 334.711365,572.488464 
	C335.623230,578.811218 336.535126,585.134033 337.724182,591.752625 
	C337.220886,592.954895 336.440430,593.861389 335.397888,594.916504 
z"/>
<path fill="#F2CEC8" opacity="1.000000" stroke="none" 
	d="
M370.646118,419.085358 
	C370.497925,420.504303 370.077942,422.087677 369.309418,423.491241 
	C368.974731,422.867523 368.988586,422.423615 369.002441,421.979736 
	C369.459778,421.069763 369.917053,420.159790 370.646118,419.085358 
z"/>
<path fill="#CFACA7" opacity="1.000000" stroke="none" 
	d="
M334.041718,479.412140 
	C334.198090,479.646637 334.290314,480.195129 334.161743,480.872986 
	C333.953156,480.576935 333.965363,480.151520 334.041718,479.412140 
z"/>
<path fill="#D6B4AF" opacity="1.000000" stroke="none" 
	d="
M368.748169,422.141052 
	C368.988586,422.423615 368.974731,422.867523 368.980530,423.643555 
	C369.000153,423.975739 368.993164,423.993988 368.740265,423.987305 
	C368.487366,423.980621 367.995026,423.994873 367.996124,423.996521 
	C367.997223,423.998169 367.980835,423.985321 367.980835,423.985321 
	C368.151855,423.424347 368.322876,422.863373 368.748169,422.141052 
z"/>
<path fill="#D6B4AF" opacity="1.000000" stroke="none" 
	d="
M366.795654,425.830841 
	C366.967133,425.259888 367.206390,424.740936 367.713257,424.103638 
	C367.980835,423.985321 367.997223,423.998169 367.964478,424.290741 
	C367.618683,425.053802 367.305634,425.524292 366.992554,425.994812 
	C366.992554,425.994781 366.863434,425.882843 366.795654,425.830841 
z"/>
<path fill="#BE9B98" opacity="1.000000" stroke="none" 
	d="
M419.943298,649.932373 
	C420.181122,649.993530 420.393158,650.510193 420.272278,651.163635 
	C419.932037,650.996155 419.924774,650.692017 419.943298,649.932373 
z"/>
<path fill="#A3837E" opacity="1.000000" stroke="none" 
	d="
M610.992676,885.002869 
	C611.186707,885.210144 611.404480,885.398743 611.622314,885.587402 
	C611.372559,885.522400 611.122742,885.457458 610.968628,885.169800 
	C611.064209,884.947144 611.016479,884.984253 610.992676,885.002869 
z"/>
<path fill="#E7F6FC" opacity="1.000000" stroke="none" 
	d="
M505.335449,648.749817 
	C504.453735,648.075317 503.873993,647.268799 503.092743,646.238770 
	C501.031403,642.952209 499.171570,639.889221 497.311768,636.826233 
	C497.677490,636.557068 498.043213,636.287903 498.408966,636.018677 
	C500.596436,639.002991 502.783905,641.987305 505.326874,645.456543 
	C507.553406,642.048767 509.556610,638.982849 511.559784,635.916931 
	C512.054932,636.222717 512.550110,636.528442 513.045288,636.834229 
	C510.575989,640.762085 508.106720,644.689941 505.335449,648.749817 
z"/>
<path fill="#E7F6FC" opacity="1.000000" stroke="none" 
	d="
M451.572205,612.348267 
	C453.842224,615.520386 455.819977,618.690918 458.133972,622.400513 
	C460.374237,618.682251 462.156433,615.724182 464.097107,612.459961 
	C464.498016,613.019714 465.215546,614.149780 464.905060,614.708252 
	C462.988037,618.156189 460.839508,621.475464 457.733307,626.516418 
	C455.207031,620.969482 453.243469,616.658142 451.572205,612.348267 
z"/>
<path fill="#FFFFFF" opacity="1.000000" stroke="none" 
	d="
M545.889282,617.332642 
	C547.112000,617.009277 548.252686,617.041077 549.711914,617.026367 
	C549.591553,618.250183 549.152649,619.520508 548.315857,621.942505 
	C547.108948,619.895508 546.458130,618.791687 545.889282,617.332642 
z"/>
<path fill="#FFFFFF" opacity="1.000000" stroke="none" 
	d="
M540.093994,609.297729 
	C540.686523,609.450073 541.371826,609.896606 542.035400,610.688660 
	C541.404663,610.553406 540.795715,610.072632 540.093994,609.297729 
z"/>
<path fill="#FFFFFF" opacity="1.000000" stroke="none" 
	d="
M543.890869,614.298340 
	C544.376526,614.445801 544.780212,614.917358 545.095398,615.712891 
	C544.607605,615.565369 544.208191,615.093872 543.890869,614.298340 
z"/>
<path fill="#FFFFFF" opacity="1.000000" stroke="none" 
	d="
M550.318970,616.936951 
	C550.135376,616.432312 550.280212,615.828552 550.725098,615.098450 
	C550.899292,615.593994 550.773315,616.215942 550.318970,616.936951 
z"/>
<path fill="#FFFFFF" opacity="1.000000" stroke="none" 
	d="
M541.903259,611.298340 
	C542.382874,611.445984 542.793579,611.917114 543.105347,612.712708 
	C542.615784,612.565369 542.225037,612.093567 541.903259,611.298340 
z"/>
<path fill="#FFFFFF" opacity="1.000000" stroke="none" 
	d="
M543.008789,613.270081 
	C543.294983,613.136963 543.623901,613.291138 543.985596,613.739014 
	C543.696045,613.874268 543.373779,613.715820 543.008789,613.270081 
z"/>
<path fill="#FFFFFF" opacity="1.000000" stroke="none" 
	d="
M545.004883,616.273804 
	C545.292053,616.138489 545.617920,616.293945 545.981201,616.740967 
	C545.693665,616.876465 545.368652,616.720520 545.004883,616.273804 
z"/>
<path fill="#FFFFFF" opacity="1.000000" stroke="none" 
	d="
M551.278320,615.030518 
	C551.138062,614.695801 551.296936,614.359436 551.744751,614.002441 
	C551.881653,614.330750 551.729492,614.679810 551.278320,615.030518 
z"/>
<path fill="#FFFFFF" opacity="1.000000" stroke="none" 
	d="
M351.221710,245.651703 
	C348.310699,246.246323 345.478546,246.827438 342.696930,246.643646 
	C337.455414,246.297318 332.243073,245.510162 326.585907,244.905594 
	C318.702850,243.618271 311.271790,242.203033 303.796875,241.079666 
	C295.654266,239.855957 287.470978,238.902985 279.317322,237.032822 
	C304.047791,236.347382 328.778229,235.661926 354.191589,234.957550 
	C353.069092,239.002426 352.196228,242.147659 351.221710,245.651703 
z"/>
<path fill="#E7F6FC" opacity="1.000000" stroke="none" 
	d="
M473.394531,687.317932 
	C471.864075,689.645874 470.488403,691.643066 468.763763,694.146851 
	C466.608978,690.921021 464.728607,688.106018 462.607666,685.073975 
	C461.700104,683.786560 461.033112,682.716187 459.654053,680.503052 
	C461.566315,681.409119 462.388458,681.798706 463.511383,682.622131 
	C464.060577,683.396667 464.308990,683.737305 464.557373,684.078003 
	C465.132446,685.054565 465.707489,686.031067 466.626862,687.547241 
	C467.885986,689.755920 468.933716,691.051086 470.320892,688.542908 
	C471.164307,687.017883 471.733459,685.341187 472.425781,683.732605 
	C473.144928,682.699341 473.864136,681.666077 474.583344,680.632874 
	C475.022461,680.934998 475.461609,681.237183 475.900757,681.539307 
	C475.116943,683.355225 474.333130,685.171204 473.394531,687.317932 
z"/>
<path fill="#C4A19D" opacity="1.000000" stroke="none" 
	d="
M472.255402,683.424011 
	C471.733459,685.341187 471.164307,687.017883 470.320892,688.542908 
	C468.933716,691.051086 467.885986,689.755920 466.877350,687.780090 
	C468.550659,686.020691 470.317841,684.568054 472.255402,683.424011 
z"/>
<path fill="#C4A19D" opacity="1.000000" stroke="none" 
	d="
M464.909851,684.033691 
	C464.308990,683.737305 464.060577,683.396667 463.745056,682.857666 
	C464.528534,682.431519 465.379211,682.203735 466.229858,681.975891 
	C465.907379,682.647034 465.584869,683.318237 464.909851,684.033691 
z"/>
<path fill="#E7F6FC" opacity="1.000000" stroke="none" 
	d="
M417.760803,582.133057 
	C415.930328,579.255554 414.295654,576.668579 412.660980,574.081543 
	C413.037872,573.814331 413.414764,573.547180 413.791687,573.279968 
	C415.911896,576.155212 418.032135,579.030518 420.478760,582.348389 
	C422.755219,578.944336 424.747253,575.965576 426.739288,572.986816 
	C427.159363,573.262695 427.579407,573.538635 427.999451,573.814514 
	C425.704468,577.686340 423.409454,581.558167 420.770264,586.010742 
	C419.629181,584.555969 418.792908,583.489746 417.760803,582.133057 
z"/>
<path fill="#FFFFFF" opacity="1.000000" stroke="none" 
	d="
M546.240967,610.783447 
	C546.887939,611.103821 547.534912,611.424133 548.455566,611.708862 
	C548.729309,611.673218 549.007324,611.983704 549.159668,612.130249 
	C548.858887,613.040771 548.405640,613.804749 547.718994,614.962280 
	C546.927856,613.671997 546.383545,612.784241 545.905884,611.461548 
	C545.972595,611.026611 546.240967,610.783447 546.240967,610.783447 
z"/>
<path fill="#FFFFFF" opacity="1.000000" stroke="none" 
	d="
M545.840088,611.149963 
	C545.239807,610.715759 544.772095,610.158264 544.304382,609.600708 
	C544.452393,609.441040 544.600403,609.281372 544.748413,609.121704 
	C545.196716,609.492126 545.645020,609.862488 546.167114,610.508179 
	C546.240967,610.783447 545.972595,611.026611 545.840088,611.149963 
z"/>
<path fill="#F2CEC8" opacity="1.000000" stroke="none" 
	d="
M323.177612,531.485352 
	C323.814056,529.554138 324.248291,527.971619 325.065979,526.621277 
	C325.714325,525.550598 326.832550,524.764465 328.654755,524.552795 
	C328.433380,527.085815 328.211975,529.618835 327.995361,532.575928 
	C326.663666,540.469666 325.402954,547.954102 323.944641,555.399902 
	C323.507965,557.629456 322.519684,559.750977 321.784149,561.922058 
	C321.103363,561.764099 320.422607,561.606201 319.741852,561.448303 
	C320.874847,551.610229 322.007843,541.772217 323.177612,531.485352 
z"/>
<path fill="#F2CEC8" opacity="1.000000" stroke="none" 
	d="
M314.243286,560.829102 
	C315.529419,549.438354 317.151215,537.851624 318.710388,526.256531 
	C318.952209,524.458191 318.907440,522.621399 318.996979,520.347168 
	C323.240112,522.595703 320.000732,526.748352 320.979492,530.540222 
	C318.843445,540.873596 316.700928,550.752014 314.243286,560.829102 
z"/>
<path fill="#F2CEC8" opacity="1.000000" stroke="none" 
	d="
M331.067261,533.449951 
	C331.633484,531.208740 332.180267,529.408447 332.727051,527.608215 
	C333.164185,527.867310 333.601318,528.126465 334.073364,528.701111 
	C332.893677,540.625366 331.679077,552.234131 330.464447,563.842834 
	C329.765350,563.778259 329.066223,563.713745 328.367096,563.649170 
	C329.260681,553.729736 330.154236,543.810303 331.067261,533.449951 
z"/>
<path fill="#F2CEC8" opacity="1.000000" stroke="none" 
	d="
M338.088440,529.481323 
	C338.848877,528.378906 339.577576,527.739929 340.603699,527.068054 
	C339.711121,539.873230 338.521149,552.711365 337.331146,565.549500 
	C336.790436,565.497314 336.249725,565.445190 335.709015,565.393066 
	C336.491547,553.577026 337.274109,541.760925 338.088440,529.481323 
z"/>
<path fill="#DBB8B3" opacity="1.000000" stroke="none" 
	d="
M355.905518,571.029663 
	C355.866394,559.100769 356.175079,547.071960 356.483795,535.043091 
	C357.149139,535.077026 357.814484,535.110901 358.479828,535.144836 
	C357.737640,547.073120 356.995483,559.001343 355.905518,571.029663 
z"/>
<path fill="#F2CEC8" opacity="1.000000" stroke="none" 
	d="
M349.977783,564.608582 
	C350.277985,555.107361 350.576294,546.053406 350.874603,536.999390 
	C350.988800,537.014709 351.102997,537.029968 351.217194,537.045288 
	C351.217194,547.670471 351.217194,558.295593 351.217194,568.920715 
	C350.803436,568.916382 350.389648,568.912109 349.975891,568.907776 
	C349.975891,567.623779 349.975891,566.339783 349.977783,564.608582 
z"/>
<path fill="#F2CEC8" opacity="1.000000" stroke="none" 
	d="
M366.947388,426.353912 
	C367.305634,425.524292 367.618683,425.053802 367.963379,424.289093 
	C367.995026,423.994873 368.487366,423.980621 368.733276,423.992920 
	C368.080627,427.189545 367.182007,430.373840 366.215454,434.031555 
	C366.147461,434.504944 366.110748,434.733490 365.840759,434.994965 
	C363.411102,439.843567 361.251465,444.430695 359.091797,449.017822 
	C355.526215,455.891998 351.960663,462.766174 348.395081,469.640350 
	C347.838257,469.367157 347.281433,469.093933 346.724579,468.820740 
	C353.450470,454.784821 360.176331,440.748901 366.947388,426.353912 
z"/>
<path fill="#E7F6FC" opacity="1.000000" stroke="none" 
	d="
M366.110748,434.733490 
	C366.110748,434.733490 366.147461,434.504944 366.121216,434.397034 
	C366.941406,433.841187 367.787872,433.393250 369.693726,432.384674 
	C367.700195,437.900360 365.997467,442.611542 364.208252,447.668610 
	C362.751617,451.509918 361.381561,455.005280 360.011505,458.500671 
	C359.632935,458.374634 359.254395,458.248596 358.875854,458.122559 
	C359.644104,455.358917 360.412354,452.595306 361.467468,449.194000 
	C363.206451,443.948730 364.658600,439.341095 366.110748,434.733490 
z"/>
<path fill="#E7F6FC" opacity="1.000000" stroke="none" 
	d="
M371.917725,442.602112 
	C369.256805,449.718445 366.652954,456.477997 364.049103,463.237579 
	C363.628052,463.103851 363.207001,462.970154 362.785980,462.836456 
	C364.194885,458.483826 365.603821,454.131195 367.087158,449.406860 
	C368.969421,444.915344 370.777283,440.795593 372.585144,436.675812 
	C372.888000,436.741089 373.190887,436.806335 373.493744,436.871613 
	C372.987427,438.662872 372.481110,440.454102 371.917725,442.602112 
z"/>
<path fill="#EDC9C5" opacity="1.000000" stroke="none" 
	d="
M383.988953,444.708679 
	C380.936279,452.745605 377.884583,460.496796 374.832855,468.247955 
	C374.384827,468.083527 373.936798,467.919128 373.488739,467.754700 
	C376.299622,460.084045 379.110535,452.413422 381.972046,444.372375 
	C382.503448,443.625427 382.984192,443.248901 383.464966,442.872375 
	C383.639923,443.389221 383.814911,443.906067 383.988953,444.708679 
z"/>
<path fill="#F2CEC8" opacity="1.000000" stroke="none" 
	d="
M377.965332,443.666687 
	C374.883240,451.636322 371.810425,459.292053 368.737640,466.947815 
	C368.339539,466.818939 367.941437,466.690033 367.543365,466.561157 
	C369.998199,459.619598 372.453064,452.678040 374.953186,445.364502 
	C375.440491,444.176361 375.836639,443.330017 376.344849,442.557312 
	C376.581177,442.197998 377.035065,441.981720 377.390350,441.700562 
	C377.585114,442.251312 377.779877,442.802094 377.965332,443.666687 
z"/>
<path fill="#F2CEC8" opacity="1.000000" stroke="none" 
	d="
M378.398834,438.726624 
	C378.555908,438.852112 378.578094,439.069977 378.600250,439.287811 
	C378.488129,439.131531 378.376038,438.975250 378.398834,438.726624 
z"/>
<path fill="#F2CEC8" opacity="1.000000" stroke="none" 
	d="
M379.592957,436.269989 
	C379.443817,436.150269 379.423248,435.943329 379.402649,435.736420 
	C379.508972,435.885223 379.615265,436.033997 379.592957,436.269989 
z"/>
<path fill="#E7F6FC" opacity="1.000000" stroke="none" 
	d="
M520.809998,696.088013 
	C521.148804,696.502258 521.487610,696.916504 522.121826,697.695801 
	C523.040039,699.316895 523.662720,700.572876 525.029480,703.329651 
	C526.539429,699.408203 527.545166,696.796326 528.550842,694.184448 
	C529.571777,693.852722 530.592712,693.520996 532.839233,692.790955 
	C530.000732,697.540588 527.712402,701.369690 524.869324,706.127014 
	C521.787659,701.365356 519.296143,697.515564 516.804626,693.665771 
	C517.102356,693.434631 517.400024,693.203552 517.697754,692.972412 
	C518.210449,693.309998 518.723206,693.647583 519.562256,694.444519 
	C520.195740,695.298584 520.502869,695.693298 520.809998,696.088013 
z"/>
<path fill="#B79692" opacity="1.000000" stroke="none" 
	d="
M528.123779,694.126465 
	C527.545166,696.796326 526.539429,699.408203 525.029480,703.329651 
	C523.662720,700.572876 523.040039,699.316895 522.398560,697.721191 
	C524.152161,696.277222 525.924438,695.172852 528.123779,694.126465 
z"/>
<path fill="#B79692" opacity="1.000000" stroke="none" 
	d="
M521.083618,695.897949 
	C520.502869,695.693298 520.195740,695.298584 519.818726,694.660217 
	C520.333191,694.166382 520.917542,693.916199 521.501831,693.666016 
	C521.453674,694.346619 521.405457,695.027283 521.083618,695.897949 
z"/>
<path fill="#F2CEC8" opacity="1.000000" stroke="none" 
	d="
M343.860046,491.401215 
	C344.838196,487.943695 345.794525,484.856567 346.750824,481.769440 
	C347.090973,481.774750 347.431122,481.780060 347.771240,481.785370 
	C347.850830,483.261566 347.930389,484.737732 348.013428,486.610168 
	C344.791046,497.458496 341.565155,507.910492 338.339264,518.362488 
	C337.637543,518.164246 336.935852,517.966064 336.234131,517.767822 
	C338.768829,509.102417 341.303528,500.437012 343.860046,491.401215 
z"/>
<path fill="#F2CEC8" opacity="1.000000" stroke="none" 
	d="
M336.930267,492.317230 
	C338.447418,487.680725 339.913361,483.412415 341.379272,479.144104 
	C341.912811,479.317413 342.446320,479.490692 342.979858,479.664001 
	C342.005646,483.189301 341.031464,486.714569 340.068817,490.631836 
	C337.416718,499.122406 334.753052,507.220947 332.089386,515.319519 
	C331.407440,515.105713 330.725494,514.891846 330.043549,514.678040 
	C332.322021,507.347168 334.600525,500.016296 336.930267,492.317230 
z"/>
<path fill="#F2CEC8" opacity="1.000000" stroke="none" 
	d="
M350.002716,488.418274 
	C350.755798,486.614624 351.496826,485.208557 352.523102,483.261169 
	C352.764252,484.324341 352.885284,484.857880 353.015137,485.700256 
	C350.314606,495.675873 347.647888,505.354950 344.856232,514.997925 
	C344.359161,516.714783 343.343811,518.281677 342.567810,519.917786 
	C342.091370,519.734741 341.614929,519.551758 341.138489,519.368713 
	C344.089203,509.184448 347.039917,499.000153 350.002716,488.418274 
z"/>
<path fill="#E7F6FC" opacity="1.000000" stroke="none" 
	d="
M347.257965,519.081421 
	C349.808472,508.795959 352.259857,498.891693 354.711212,488.987457 
	C355.287994,489.132599 355.864746,489.277740 356.441498,489.422882 
	C353.462921,501.112976 350.484375,512.803040 347.505798,524.493103 
	C347.078644,524.393311 346.651459,524.293518 346.224304,524.193726 
	C346.535828,522.616699 346.847321,521.039673 347.257965,519.081421 
z"/>
<path fill="#F2CEC8" opacity="1.000000" stroke="none" 
	d="
M358.136047,498.317749 
	C358.873688,495.575195 359.537689,493.239777 360.201691,490.904388 
	C360.625671,491.001770 361.049683,491.099182 361.473663,491.196594 
	C359.120148,502.840942 356.766663,514.485291 354.413147,526.129578 
	C353.888367,526.033508 353.363586,525.937500 352.838806,525.841431 
	C354.579987,516.802551 356.321198,507.763733 358.136047,498.317749 
z"/>
<path fill="#EDC9C5" opacity="1.000000" stroke="none" 
	d="
M360.011993,527.007751 
	C362.025818,515.488708 364.039642,503.969666 366.053467,492.450623 
	C366.746979,492.590179 367.440491,492.729736 368.134033,492.869293 
	C365.603668,504.078796 363.073303,515.288269 360.270935,526.748352 
	C359.998962,526.998901 360.011993,527.007751 360.011993,527.007751 
z"/>
<path fill="#EDC9C5" opacity="1.000000" stroke="none" 
	d="
M359.993103,526.992737 
	C359.874664,527.406982 359.762115,527.827332 359.649536,528.247742 
	C359.637787,527.913147 359.626038,527.578552 359.813141,527.125854 
	C360.011993,527.007751 359.998962,526.998901 359.993103,526.992737 
z"/>
<path fill="#F2CEC8" opacity="1.000000" stroke="none" 
	d="
M323.452942,513.518250 
	C323.420288,513.460022 323.485565,513.576477 323.452942,513.518250 
z"/>
<path fill="#DBB8B3" opacity="1.000000" stroke="none" 
	d="
M365.840759,434.994965 
	C364.658600,439.341095 363.206451,443.948730 361.528351,448.809692 
	C360.809601,449.046417 360.316833,449.029816 359.457947,449.015503 
	C361.251465,444.430695 363.411102,439.843567 365.840759,434.994965 
z"/>
<path fill="#E7F6FC" opacity="1.000000" stroke="none" 
	d="
M358.753571,460.984009 
	C358.588043,461.103241 358.423279,461.046539 358.258514,460.989838 
	C358.423798,460.929230 358.589050,460.868652 358.753571,460.984009 
z"/>
<path fill="#E7F6FC" opacity="1.000000" stroke="none" 
	d="
M362.347717,466.223877 
	C362.366852,465.947144 362.499207,465.799805 362.631592,465.652466 
	C362.574738,465.886078 362.517883,466.119659 362.347717,466.223877 
z"/>
<path fill="#E7F6FC" opacity="1.000000" stroke="none" 
	d="
M500.898804,738.962646 
	C501.435211,738.694214 501.971588,738.425781 503.909943,737.455811 
	C500.834839,742.540405 498.517029,746.372864 495.676117,751.070251 
	C492.963562,746.862549 490.675018,743.345459 488.478485,739.771790 
	C488.399841,739.643799 489.229492,738.957520 489.949921,739.023254 
	C490.906647,740.148987 491.549255,740.782959 492.191895,741.416992 
	C492.549866,742.266296 492.907867,743.115540 493.599945,744.505005 
	C495.336060,747.844666 496.408325,747.234131 497.296509,744.719971 
	C497.961456,743.743469 498.626434,742.767029 499.611633,741.284912 
	C500.254211,740.173645 500.576508,739.568176 500.898804,738.962646 
z"/>
<path fill="#B1908D" opacity="1.000000" stroke="none" 
	d="
M497.208435,744.338501 
	C496.408325,747.234131 495.336060,747.844666 493.841339,744.756104 
	C494.696564,743.133789 495.475464,740.683411 497.208435,744.338501 
z"/>
<path fill="#B1908D" opacity="1.000000" stroke="none" 
	d="
M492.524536,741.259033 
	C491.549255,740.782959 490.906647,740.148987 490.201813,739.231934 
	C491.097015,738.673401 492.054474,738.397949 493.011902,738.122498 
	C492.960327,739.115356 492.908752,740.108276 492.524536,741.259033 
z"/>
<path fill="#B1908D" opacity="1.000000" stroke="none" 
	d="
M500.608704,738.833984 
	C500.576508,739.568176 500.254211,740.173645 499.749847,740.956726 
	C498.888336,740.533508 498.208893,739.932739 497.529449,739.331970 
	C498.459167,739.123108 499.388885,738.914246 500.608704,738.833984 
z"/>
</svg>